<?xml version="1.0" standalone="no"?>
<!DOCTYPE svg PUBLIC "-//W3C//DTD SVG 20010904//EN"
 "http://www.w3.org/TR/2001/REC-SVG-20010904/DTD/svg10.dtd">
<svg version="1.0" xmlns="http://www.w3.org/2000/svg"
 width="833.000000pt" height="833.000000pt" viewBox="0 0 833.000000 833.000000"
 preserveAspectRatio="xMidYMid meet">
<metadata>
Created by potrace 1.11, written by Peter Selinger 2001-2013
</metadata>
<g transform="translate(0.000000,833.000000) scale(0.100000,-0.100000)"
fill="#000000" stroke="none">
<path d="M6261 8142 c-61 -63 -167 -223 -225 -338 -48 -97 -124 -307 -157
-439 -12 -44 -36 -159 -54 -255 -18 -96 -45 -214 -59 -262 -24 -78 -30 -89
-54 -94 -148 -31 -590 -192 -942 -341 -283 -120 -518 -291 -664 -482 -75 -99
-168 -261 -222 -385 -28 -67 -74 -166 -101 -221 -28 -55 -69 -149 -92 -209
-83 -221 -132 -281 -349 -427 -284 -191 -335 -244 -489 -512 -131 -227 -152
-268 -187 -366 -40 -111 -112 -245 -163 -301 -48 -54 -229 -182 -388 -275 -63
-36 -123 -82 -162 -121 l-62 -64 -42 73 c-23 39 -52 90 -65 112 -80 140 -193
462 -225 643 -27 149 -36 373 -20 482 12 81 12 83 -16 139 -35 70 -85 101
-133 81 -63 -26 -131 -134 -209 -332 -107 -271 -143 -434 -144 -663 -1 -168
10 -234 98 -595 35 -146 69 -303 75 -350 7 -47 13 -191 13 -320 3 -335 -23
-445 -177 -769 -101 -210 -128 -297 -166 -541 -16 -102 -40 -222 -55 -268 -22
-71 -33 -89 -80 -136 -50 -50 -55 -58 -55 -99 0 -50 31 -91 76 -100 85 -16
194 85 246 225 11 32 23 58 25 58 8 0 42 -44 43 -54 0 -5 -43 -69 -95 -141
-52 -73 -98 -146 -101 -163 -14 -71 62 -126 127 -92 18 10 126 218 153 297 7
21 15 37 17 36 2 -1 25 -7 50 -13 l47 -12 -10 -34 c-5 -19 -31 -82 -58 -140
-28 -58 -50 -115 -50 -126 0 -78 97 -118 152 -63 29 29 58 129 58 198 0 24 3
71 6 105 l7 61 43 14 44 14 0 -37 c0 -44 -32 -197 -55 -260 -20 -56 -12 -92
27 -125 35 -30 72 -32 115 -5 58 35 64 106 33 390 l-12 115 37 55 38 55 -7
-100 c-11 -182 -10 -339 2 -362 16 -29 46 -45 87 -45 47 0 72 17 97 65 19 37
22 61 24 197 3 164 42 585 74 785 20 121 77 320 164 562 109 309 138 355 360
581 168 170 238 229 369 306 92 55 472 246 543 274 92 37 286 74 459 88 279
23 344 18 600 -43 115 -27 166 -47 405 -158 240 -112 390 -172 495 -201 186
-50 594 -45 871 11 287 58 429 132 657 343 51 48 149 132 217 187 178 143 190
157 190 211 0 80 -75 129 -143 93 -12 -7 -49 -34 -83 -60 -34 -27 -68 -49 -77
-49 -8 0 -53 -20 -100 -45 -173 -90 -371 -135 -600 -135 -143 0 -215 10 -522
70 -280 54 -427 92 -517 133 -353 161 -706 267 -983 296 -179 18 -552 25 -649
11 -48 -7 -89 -10 -92 -7 -9 9 77 106 277 309 224 227 322 301 524 398 181 86
302 114 584 136 108 8 246 21 306 29 61 7 220 19 355 25 246 11 483 31 595 51
122 21 405 109 592 183 115 46 325 156 423 223 99 67 160 122 225 202 29 36
81 95 116 131 35 36 79 94 98 129 34 64 106 163 233 320 75 93 89 131 64 179
-20 40 -44 52 -96 52 -39 0 -47 -5 -109 -70 -37 -38 -73 -70 -80 -70 -25 0
-301 -156 -456 -258 -448 -295 -637 -377 -991 -431 -118 -18 -215 -22 -644
-30 -382 -8 -525 -14 -585 -26 -44 -8 -152 -22 -240 -31 -137 -14 -258 -39
-339 -70 -16 -6 -17 -4 -11 17 20 66 145 288 215 381 120 160 188 217 355 299
208 102 632 262 795 301 375 88 518 158 703 342 101 100 193 229 262 366 86
171 155 411 155 538 0 71 -1 75 -34 108 -33 33 -37 34 -110 34 -96 0 -115 -12
-161 -99 -34 -64 -86 -139 -153 -217 l-33 -39 6 120 c10 192 33 350 71 495 24
91 34 146 30 170 -3 21 1 51 10 77 30 79 -11 143 -91 143 -42 0 -51 -4 -94
-48z"/>
</g>
</svg>
