<?xml version="1.0" standalone="no"?>
<!DOCTYPE svg PUBLIC "-//W3C//DTD SVG 20010904//EN"
 "http://www.w3.org/TR/2001/REC-SVG-20010904/DTD/svg10.dtd">
<svg version="1.0" xmlns="http://www.w3.org/2000/svg"
 width="833.000000pt" height="833.000000pt" viewBox="0 0 833.000000 833.000000"
 preserveAspectRatio="xMidYMid meet">
<metadata>
Created by potrace 1.11, written by Peter Selinger 2001-2013
</metadata>
<g transform="translate(0.000000,833.000000) scale(0.100000,-0.100000)"
fill="#000000" stroke="none">
<path d="M6265 8004 c-56 -58 -155 -204 -206 -306 -58 -115 -145 -380 -174
-531 -14 -73 -33 -165 -41 -206 -7 -40 -26 -111 -40 -157 -20 -68 -29 -84 -45
-84 -29 0 -220 -63 -454 -151 -567 -211 -754 -315 -955 -525 -125 -132 -176
-218 -373 -639 -41 -88 -78 -171 -82 -185 -17 -58 -60 -149 -101 -212 -46 -72
-99 -116 -294 -244 -65 -42 -139 -103 -195 -159 -79 -79 -102 -111 -186 -260
-120 -210 -152 -274 -190 -378 -38 -103 -86 -189 -139 -249 -41 -48 -215 -170
-370 -261 -47 -28 -110 -76 -141 -109 l-57 -58 -55 97 c-138 242 -226 491
-263 743 -13 89 -15 155 -11 294 5 164 4 182 -13 217 -39 76 -104 91 -164 38
-49 -42 -143 -238 -206 -425 -57 -171 -80 -304 -80 -474 0 -134 16 -233 84
-511 79 -323 88 -385 89 -654 2 -311 -19 -402 -159 -696 -97 -205 -124 -290
-153 -489 -40 -264 -62 -331 -135 -402 -39 -39 -46 -52 -46 -85 0 -49 21 -78
65 -93 31 -10 41 -9 80 10 59 28 101 78 145 172 35 75 37 77 53 60 24 -27 22
-34 -30 -107 -121 -168 -133 -189 -133 -227 0 -28 6 -42 26 -57 54 -42 109
-18 143 63 10 22 37 79 60 126 22 46 41 90 41 97 0 16 3 16 52 1 36 -11 39
-14 34 -38 -3 -15 -24 -65 -46 -111 -54 -109 -61 -133 -48 -169 12 -37 35 -50
82 -50 44 0 70 24 86 77 10 33 28 196 30 260 0 13 8 24 20 27 11 3 30 9 42 12
20 6 21 4 15 -57 -3 -35 -16 -100 -28 -144 -35 -131 -35 -140 -1 -175 49 -49
119 -36 151 27 14 28 14 145 0 303 l-12 125 33 50 32 50 -6 -85 c-12 -165 -10
-314 3 -338 7 -13 28 -30 47 -38 29 -12 39 -12 68 0 60 25 69 57 77 261 7 181
36 480 65 675 20 128 62 276 155 542 107 306 122 331 328 541 160 163 225 217
347 287 123 72 431 226 507 255 102 38 289 72 471 85 192 14 264 10 426 -26
162 -36 230 -61 430 -154 263 -123 367 -166 487 -197 104 -27 116 -28 343 -27
309 1 510 31 697 105 137 54 213 108 430 303 49 43 133 114 188 158 55 44 108
94 118 111 21 38 16 81 -14 113 -45 48 -93 38 -193 -40 -32 -25 -64 -46 -71
-46 -7 0 -62 -25 -121 -55 -164 -83 -252 -100 -524 -100 -211 1 -219 1 -425
42 -300 59 -444 98 -570 152 -360 157 -628 234 -902 261 -141 14 -509 17 -597
6 l-70 -9 32 43 c17 24 118 131 224 239 214 218 294 279 493 376 171 83 314
115 570 130 61 4 160 13 220 20 61 8 205 19 320 25 422 21 569 38 760 91 423
116 787 300 941 474 32 37 91 102 130 144 39 42 90 110 114 151 24 41 97 142
162 223 102 129 118 154 118 186 0 44 -19 74 -59 91 -45 18 -92 -2 -141 -60
-29 -34 -61 -58 -115 -83 -109 -52 -271 -147 -420 -247 -343 -229 -551 -321
-835 -371 -97 -17 -189 -21 -590 -29 -350 -7 -498 -14 -564 -25 -49 -9 -154
-22 -235 -31 -138 -14 -281 -43 -323 -65 -28 -15 -23 7 28 112 71 147 167 283
268 384 81 80 104 96 211 149 66 32 167 76 225 98 58 22 148 56 200 77 129 52
223 81 435 136 99 26 208 60 243 76 329 149 604 546 672 971 15 94 7 142 -30
180 -26 26 -34 28 -103 28 -64 0 -77 -3 -100 -24 -14 -13 -33 -41 -42 -62 -20
-48 -169 -247 -174 -232 -4 13 17 270 30 363 6 39 24 123 41 188 18 74 28 134
26 160 -2 23 2 53 9 67 20 38 16 75 -13 109 -22 26 -33 31 -70 31 -40 0 -50
-5 -89 -46z"/>
</g>
</svg>
