<?xml version="1.0" standalone="no"?>
<!DOCTYPE svg PUBLIC "-//W3C//DTD SVG 20010904//EN"
 "http://www.w3.org/TR/2001/REC-SVG-20010904/DTD/svg10.dtd">
<svg version="1.0" xmlns="http://www.w3.org/2000/svg"
 width="3000.000000pt" height="3000.000000pt" viewBox="0 0 3000.000000 3000.000000"
 preserveAspectRatio="xMidYMid meet">
<metadata>
Created by potrace 1.11, written by Peter Selinger 2001-2013
</metadata>
<g transform="translate(0.000000,3000.000000) scale(0.100000,-0.100000)"
fill="#000000" stroke="none">
<path d="M17491 28452 c-23 -4 -131 -105 -131 -122 0 -5 -6 -15 -14 -23 -17
-17 -94 -134 -129 -198 -74 -132 -176 -436 -212 -634 -10 -49 -19 -99 -21
-110 -3 -11 -7 -33 -9 -50 -3 -16 -7 -41 -10 -55 -3 -14 -8 -36 -11 -49 -3
-13 -15 -60 -28 -105 -19 -67 -28 -82 -47 -88 -188 -54 -624 -209 -754 -268
-33 -15 -78 -33 -100 -40 -22 -7 -51 -18 -65 -25 -14 -7 -83 -41 -155 -76
-134 -65 -178 -92 -280 -167 -66 -50 -201 -182 -256 -252 -61 -76 -162 -250
-208 -355 -24 -55 -72 -158 -107 -230 -35 -71 -76 -166 -92 -211 -88 -239
-144 -308 -362 -449 -258 -168 -345 -257 -470 -483 -48 -88 -95 -168 -99 -172
-11 -9 -69 -134 -96 -205 -76 -198 -149 -315 -239 -383 -30 -23 -59 -42 -64
-42 -5 0 -20 -9 -33 -21 -38 -33 -95 -71 -214 -142 -103 -60 -225 -164 -225
-191 -1 -18 -148 230 -154 259 -1 6 -16 39 -33 75 -78 166 -153 418 -168 565
-3 28 -8 61 -11 75 -12 58 -5 363 10 378 6 5 -14 96 -22 101 -4 4 -14 19 -22
35 -21 40 -66 57 -113 41 -19 -7 -42 -18 -49 -26 -40 -41 -123 -203 -172 -339
-16 -41 -34 -89 -41 -105 -8 -17 -25 -74 -39 -127 -58 -223 -66 -457 -22 -678
22 -115 25 -128 53 -235 60 -234 83 -342 90 -417 6 -59 0 -66 -41 -59 -5 1
-13 -4 -17 -11 -7 -11 -9 -11 -9 0 0 7 -4 10 -10 7 -9 -5 -46 -12 -115 -20
-32 -4 -84 -13 -107 -17 -7 -2 -16 -7 -20 -13 -5 -6 -8 -5 -8 2 0 9 -7 10 -25
3 -13 -5 -42 -10 -62 -11 -21 -1 -44 -7 -50 -12 -9 -6 -13 -5 -13 4 0 9 -3 10
-8 4 -4 -5 -11 -11 -17 -12 -31 -5 -138 -15 -190 -18 -33 -3 -71 -7 -85 -10
-14 -3 -38 -8 -55 -10 -240 -43 -518 -108 -539 -127 -6 -4 -19 -8 -31 -8 -12
0 -25 -4 -31 -8 -5 -5 -54 -25 -109 -47 -55 -21 -104 -42 -109 -46 -6 -5 -17
-9 -25 -9 -9 0 -28 -6 -42 -14 -15 -7 -64 -26 -110 -41 -46 -15 -97 -33 -114
-40 -16 -7 -42 -17 -57 -20 -26 -7 -28 -5 -29 26 0 19 -2 43 -4 54 -1 11 -6
47 -10 80 -12 105 -45 265 -91 440 -67 261 -66 380 7 667 22 86 42 164 44 175
2 10 13 59 24 108 11 50 22 108 26 130 3 23 8 52 10 65 3 14 8 50 11 80 3 30
7 69 10 85 2 17 7 95 10 175 l5 145 59 60 c127 130 209 237 273 357 36 67 91
210 101 264 3 16 10 47 15 69 26 108 36 222 36 420 0 158 -12 352 -26 442 -4
22 7 39 79 120 42 49 93 109 112 133 47 58 91 109 114 133 34 36 143 191 182
262 72 127 124 266 139 365 14 92 27 177 29 190 25 144 34 289 20 312 -3 4 -2
8 3 8 18 0 1 139 -22 174 -24 37 -88 47 -134 22 -34 -19 -48 -60 -50 -155 -2
-64 -7 -91 -21 -111 -10 -14 -26 -54 -35 -89 -21 -81 -84 -240 -123 -311 -41
-74 -109 -154 -218 -258 -138 -131 -152 -143 -158 -134 -6 10 1 306 8 342 3
14 7 53 10 88 3 35 13 91 22 125 19 70 19 123 1 143 -7 7 -18 20 -25 29 -22
26 -95 20 -131 -12 -17 -15 -31 -34 -31 -43 0 -13 -61 -130 -147 -280 -84
-148 -184 -372 -198 -445 -3 -16 -8 -41 -10 -55 -19 -94 -27 -460 -12 -560 9
-61 20 -228 20 -305 1 -174 -34 -315 -126 -503 -28 -59 -47 -84 -47 -65 0 14
-92 105 -150 149 -90 68 -158 108 -290 170 -69 32 -127 61 -130 65 -3 3 -16
10 -30 14 -47 15 -172 156 -218 246 -23 46 -44 94 -47 107 -2 13 -6 31 -9 40
-5 18 -19 130 -18 147 0 6 3 44 6 85 16 183 15 196 -3 226 -17 28 -17 30 3 59
12 17 23 32 26 35 10 9 4 78 -8 102 -16 30 -62 50 -101 46 -43 -5 -96 -56
-128 -124 -9 -19 -20 -34 -25 -34 -4 0 -8 -4 -8 -10 0 -5 -13 -38 -29 -72
-182 -401 -149 -830 90 -1185 60 -88 173 -204 259 -265 114 -81 215 -174 256
-234 21 -33 39 -61 40 -64 0 -3 8 -21 16 -40 29 -64 50 -221 55 -412 3 -104 2
-188 -2 -188 -4 0 -32 23 -63 51 -69 61 -228 142 -327 165 -68 16 -204 22
-255 11 -115 -24 -163 -42 -225 -82 -16 -10 -67 -43 -112 -72 -45 -29 -87 -53
-92 -53 -6 0 -11 -4 -11 -10 0 -5 -7 -10 -15 -10 -8 0 -15 -3 -15 -7 0 -12
-131 -71 -160 -73 -51 -4 -63 1 -109 50 -37 39 -110 159 -117 190 -1 6 -13 39
-24 65 -9 21 -49 133 -54 150 -2 6 -6 24 -11 40 -4 17 -10 35 -14 40 -3 6 -7
15 -8 20 -1 6 -10 35 -19 65 -29 100 -64 274 -68 340 -5 74 -15 104 -45 139
-14 16 -19 32 -15 50 3 14 8 40 11 56 23 109 -6 175 -84 189 -35 7 -101 -31
-108 -62 -17 -79 -53 -290 -60 -352 -3 -30 -9 -68 -11 -85 -9 -52 -12 -447 -4
-510 17 -127 21 -151 41 -244 34 -158 126 -399 165 -432 8 -6 14 -17 14 -24 0
-6 9 -20 20 -30 11 -10 20 -22 20 -27 0 -17 104 -119 165 -163 76 -53 144 -84
225 -100 57 -12 232 -15 275 -5 22 5 54 11 70 14 17 2 56 12 87 20 140 38 384
45 451 12 107 -53 187 -205 278 -531 22 -77 42 -153 45 -170 2 -16 9 -56 15
-87 5 -32 12 -77 14 -100 3 -24 7 -61 9 -83 10 -95 19 -269 19 -375 -1 -184 1
-176 -33 -190 -16 -7 -30 -17 -30 -22 0 -6 -7 -8 -15 -4 -8 3 -15 1 -15 -4 0
-6 -6 -10 -14 -10 -8 0 -17 -7 -20 -16 -3 -8 -10 -12 -16 -9 -6 3 -23 -3 -39
-14 -16 -12 -34 -21 -40 -21 -6 0 -11 -3 -11 -7 0 -9 -49 -33 -67 -33 -7 0
-13 -5 -13 -11 0 -6 -7 -9 -15 -5 -8 3 -15 1 -15 -4 0 -6 -8 -10 -17 -10 -9 0
-25 -8 -36 -17 -11 -10 -17 -13 -14 -6 4 6 -11 2 -33 -8 -22 -11 -45 -17 -50
-14 -6 3 -10 2 -10 -3 0 -7 -59 -31 -90 -37 -16 -2 -100 -58 -100 -66 0 -5 -5
-9 -11 -9 -7 0 -20 -10 -30 -22 -11 -11 -19 -18 -19 -14 0 4 -35 -29 -77 -73
-100 -103 -123 -129 -123 -136 0 -5 -39 -64 -50 -75 -3 -3 -11 -17 -19 -32 -8
-16 -18 -28 -23 -28 -5 0 -6 -4 -3 -10 3 -5 1 -10 -6 -10 -7 0 -10 -3 -6 -6 3
-3 -4 -22 -15 -42 -55 -99 -172 -339 -173 -357 0 -5 -6 -16 -12 -23 -7 -7 -13
-19 -13 -26 0 -8 -7 -19 -15 -26 -8 -7 -15 -21 -15 -31 0 -11 -4 -19 -8 -19
-4 0 -19 -25 -32 -55 -13 -30 -28 -55 -32 -55 -4 0 -8 -6 -8 -14 0 -7 -7 -19
-15 -26 -8 -7 -13 -16 -10 -20 3 -4 -2 -11 -11 -14 -8 -3 -12 -10 -9 -16 3 -5
2 -10 -3 -10 -5 0 -12 -8 -16 -17 -3 -10 -19 -38 -36 -63 -16 -25 -34 -54 -39
-65 -5 -11 -21 -33 -36 -49 -14 -16 -27 -37 -28 -47 -1 -11 -6 -19 -12 -19 -5
0 -23 -21 -40 -45 -16 -25 -33 -45 -37 -45 -5 0 -8 -4 -8 -10 0 -5 -14 -24
-31 -42 -59 -64 -76 -83 -98 -116 -12 -18 -27 -29 -33 -26 -6 4 -8 3 -5 -3 3
-5 -20 -39 -53 -74 -33 -35 -59 -67 -60 -71 0 -5 -4 -8 -9 -8 -13 0 -130 -118
-123 -124 3 -3 -1 -6 -8 -6 -13 0 -50 -37 -50 -51 0 -4 -9 -11 -20 -14 -11 -4
-18 -11 -15 -16 4 -5 -1 -9 -10 -9 -9 0 -13 -4 -10 -10 3 -5 1 -10 -5 -10 -6
0 -25 -13 -43 -30 -18 -16 -36 -30 -40 -30 -5 0 -5 -4 -2 -10 3 -5 3 -10 -2
-10 -4 0 -27 -18 -51 -40 -23 -22 -47 -40 -52 -40 -6 0 -9 -6 -7 -12 1 -7 -8
-14 -21 -16 -12 -2 -20 -7 -17 -12 3 -5 -4 -11 -15 -15 -11 -3 -20 -13 -20
-21 0 -8 -4 -13 -9 -9 -6 3 -14 -3 -20 -12 -6 -10 -11 -15 -11 -10 0 4 -8 -1
-18 -10 -10 -10 -37 -34 -61 -53 -24 -19 -49 -41 -56 -47 -8 -7 -17 -13 -20
-13 -4 0 -25 -14 -46 -31 -21 -17 -39 -28 -39 -25 0 3 -9 -2 -20 -11 -11 -10
-29 -25 -39 -35 -11 -9 -22 -14 -25 -11 -3 3 -8 -2 -12 -11 -3 -9 -10 -14 -14
-11 -4 3 -13 -2 -20 -10 -7 -8 -17 -15 -22 -15 -5 0 -21 -8 -36 -19 -47 -32
-87 -55 -91 -52 -2 1 -7 -1 -10 -6 -3 -5 -33 -22 -66 -38 -33 -17 -62 -32 -65
-35 -3 -3 -14 -7 -25 -8 -11 -2 -22 -8 -23 -13 -2 -5 -10 -9 -19 -9 -8 0 -29
-10 -46 -22 -38 -27 -109 -94 -87 -83 12 7 12 5 -1 -11 -25 -30 -34 -48 -20
-39 10 6 11 3 2 -14 -7 -11 -9 -21 -5 -21 3 0 1 -6 -5 -14 -9 -11 -9 -15 1
-19 8 -3 6 -6 -5 -6 -10 -1 -15 -6 -12 -11 3 -6 0 -13 -9 -16 -8 -3 -13 -14
-11 -25 2 -10 -1 -19 -7 -19 -5 0 -8 -7 -4 -15 3 -8 2 -15 -2 -15 -4 0 -7 -13
-7 -30 0 -16 3 -30 7 -30 5 0 7 -3 7 -7 -1 -5 0 -11 1 -15 1 -5 3 -12 4 -17 2
-16 51 -90 59 -91 13 0 37 -27 30 -34 -4 -3 1 -6 9 -6 9 0 18 -4 20 -9 5 -14
159 -111 168 -106 4 3 13 -2 20 -10 7 -8 16 -12 21 -9 5 3 9 0 9 -6 0 -7 7
-10 15 -6 8 3 15 1 15 -4 0 -6 8 -10 18 -10 10 0 24 -6 31 -12 11 -11 12 -10
6 2 -6 11 -3 10 12 -3 11 -9 23 -14 26 -11 4 4 13 2 20 -4 8 -7 17 -9 20 -5 4
3 13 1 20 -5 8 -7 17 -9 20 -6 3 3 12 2 19 -2 16 -10 26 -11 158 -19 57 -4
107 -8 111 -11 4 -2 10 0 14 6 4 7 12 7 26 0 10 -6 19 -7 19 -3 0 5 29 6 64 3
84 -7 444 -4 476 4 46 11 88 18 175 31 67 10 243 62 263 78 6 5 12 6 12 2 0
-4 7 -2 15 5 8 7 15 9 15 5 0 -4 6 -3 13 3 14 11 117 43 117 36 0 -3 8 0 18 5
18 10 63 21 90 23 6 1 12 5 12 10 0 4 8 8 18 8 9 0 46 14 82 32 103 51 102 51
95 29 -3 -11 -8 -37 -10 -58 -2 -21 -5 -39 -6 -40 -6 -9 -21 -88 -24 -130 -2
-21 -4 -38 -5 -38 -4 0 -11 -91 -13 -177 -1 -54 -5 -98 -9 -98 -4 0 -6 -9 -5
-20 1 -11 5 -20 10 -20 4 0 5 -6 0 -12 -4 -7 -8 -64 -9 -126 -1 -62 -5 -128
-8 -148 -4 -19 -9 -59 -12 -87 -3 -29 -9 -53 -14 -55 -11 -4 -75 -66 -74 -72
0 -3 -26 -60 -58 -127 -32 -67 -58 -126 -58 -131 0 -4 -11 -32 -25 -60 -14
-29 -25 -56 -25 -62 0 -5 -4 -10 -10 -10 -5 0 -9 -4 -7 -8 8 -25 -107 -205
-213 -334 -81 -98 -319 -338 -335 -338 -2 0 -17 -11 -32 -25 -63 -55 -127
-107 -152 -123 -47 -29 -187 -148 -257 -217 -55 -55 -154 -179 -154 -194 0 -5
-4 -11 -8 -13 -14 -6 -121 -201 -133 -243 -1 -5 -15 -37 -29 -70 -32 -69 -57
-167 -68 -257 -14 -113 -4 -277 19 -320 5 -10 7 -18 4 -18 -3 0 9 -28 26 -62
18 -36 56 -87 90 -120 l59 -58 -45 -95 c-25 -53 -45 -100 -45 -105 0 -4 -3
-10 -7 -12 -5 -2 -20 -28 -35 -58 -15 -30 -48 -91 -72 -135 -25 -44 -49 -87
-53 -95 -44 -93 -208 -397 -217 -402 -6 -4 -8 -8 -4 -8 4 0 -9 -27 -28 -61
-18 -33 -34 -67 -34 -74 0 -7 -3 -15 -7 -17 -5 -1 -19 -25 -33 -53 -14 -27
-81 -144 -151 -260 -69 -115 -146 -248 -173 -295 -26 -47 -61 -107 -78 -135
-17 -27 -42 -70 -56 -95 -14 -25 -50 -85 -81 -133 -31 -48 -63 -100 -71 -115
-9 -15 -29 -47 -45 -72 -40 -62 -145 -275 -145 -294 0 -8 -4 -17 -9 -20 -4 -3
-12 -25 -16 -48 -4 -24 -9 -50 -11 -58 -21 -89 -26 -320 -9 -418 3 -18 7 -45
10 -60 34 -199 205 -355 407 -370 58 -4 65 -7 57 -21 -5 -9 -35 -77 -68 -151
-58 -134 -160 -337 -220 -438 -17 -29 -31 -55 -31 -58 0 -8 -144 -225 -227
-342 -40 -56 -73 -105 -73 -108 0 -4 -11 -20 -25 -38 -14 -17 -29 -36 -33 -41
-28 -39 -69 -92 -79 -105 -7 -8 -42 -53 -78 -100 -36 -47 -74 -94 -84 -105
-68 -74 -227 -359 -269 -481 -27 -78 -31 -101 -38 -199 -3 -44 -7 -86 -9 -93
-2 -6 -1 -12 3 -12 4 0 8 -8 9 -17 3 -75 8 -110 16 -120 5 -7 7 -13 3 -13 -3
0 1 -16 9 -36 8 -20 15 -45 15 -55 0 -11 3 -19 8 -19 4 0 13 -14 21 -30 19
-44 104 -125 157 -150 25 -11 64 -24 87 -27 73 -12 227 -6 365 12 114 16 278
65 294 89 4 6 8 8 8 3 0 -4 18 4 40 18 22 14 42 25 45 25 5 0 3 -2 135 108 52
44 107 94 123 113 l27 33 38 -36 c57 -57 64 -63 102 -80 84 -39 173 -43 290
-13 36 9 70 17 75 18 28 7 126 63 165 95 61 49 169 163 176 185 3 9 8 17 12
17 4 0 34 36 66 80 33 44 63 80 68 80 4 0 8 6 8 13 1 6 10 23 21 36 18 22 23
24 42 11 38 -24 91 -47 134 -60 50 -15 213 -8 308 15 59 13 125 42 149 66 6 5
32 -16 64 -51 62 -69 119 -111 177 -131 22 -7 45 -16 50 -19 12 -7 87 -5 137
3 41 7 152 58 178 82 16 15 50 11 50 -4 0 -4 6 -8 13 -8 6 0 31 -5 53 -10 113
-27 248 27 381 151 76 71 227 259 274 341 46 82 109 209 109 222 0 7 4 21 9
31 11 18 55 133 65 168 7 23 32 28 40 7 6 -14 118 -70 156 -77 14 -2 27 -5 30
-6 16 -6 130 1 158 10 33 9 72 -3 72 -23 0 -14 119 -125 166 -154 95 -59 190
-96 249 -96 40 1 111 12 140 23 19 7 29 3 52 -18 116 -109 239 -173 381 -199
47 -8 235 -9 287 -1 28 4 66 10 86 13 44 7 149 47 181 69 30 21 35 20 41 -6 3
-13 11 -41 17 -63 6 -22 17 -67 25 -100 8 -33 17 -67 19 -75 14 -49 47 -200
51 -230 2 -19 7 -51 10 -70 3 -19 7 -57 10 -85 3 -27 7 -68 9 -90 2 -22 7 -78
11 -123 4 -46 8 -93 10 -104 2 -11 7 -49 10 -86 4 -37 9 -83 11 -102 2 -19 6
-66 9 -105 3 -38 8 -81 11 -95 10 -56 15 -133 19 -285 6 -195 13 -388 19 -475
7 -92 16 -256 21 -390 7 -167 11 -216 31 -385 4 -27 8 -59 10 -70 2 -10 6 -37
9 -60 4 -22 10 -56 15 -75 5 -19 11 -53 14 -75 10 -73 64 -288 97 -390 18 -55
34 -107 35 -115 3 -16 7 -26 55 -125 18 -38 37 -71 41 -73 4 -2 8 -10 8 -18 0
-8 5 -14 10 -14 6 0 10 -7 10 -15 0 -8 3 -15 8 -15 4 0 18 -17 32 -37 32 -48
50 -71 78 -100 12 -13 22 -26 22 -28 0 -3 17 -21 37 -40 20 -19 34 -35 30 -35
-4 0 25 -31 65 -70 40 -38 79 -70 86 -70 7 0 11 -4 8 -8 -3 -4 13 -19 35 -32
21 -14 39 -28 39 -32 0 -5 7 -8 15 -8 8 0 15 -4 15 -10 0 -5 6 -10 14 -10 8 0
16 -5 18 -11 3 -9 22 -16 51 -18 10 -1 -27 -66 -55 -97 -10 -11 -15 -24 -11
-27 3 -4 2 -7 -4 -7 -6 0 -25 -27 -42 -60 -18 -33 -37 -60 -43 -60 -6 0 -9 -3
-5 -6 3 -3 -12 -34 -34 -69 -21 -34 -39 -67 -39 -74 0 -6 -5 -11 -12 -11 -6 0
-9 -3 -5 -6 3 -3 -8 -28 -24 -55 -16 -28 -29 -54 -29 -58 0 -5 -9 -20 -21 -35
-11 -14 -17 -26 -14 -26 4 0 3 -6 -3 -12 -22 -28 -61 -106 -55 -112 4 -3 1 -6
-5 -6 -7 0 -11 -3 -10 -7 1 -5 -14 -39 -32 -78 -19 -38 -33 -73 -32 -77 1 -5
-3 -8 -9 -8 -5 0 -7 -5 -4 -10 3 -6 2 -10 -4 -10 -5 0 -12 -14 -16 -30 -4 -17
-11 -30 -16 -30 -5 0 -9 -4 -9 -10 0 -13 -61 -113 -74 -122 -6 -4 -8 -8 -3 -8
4 0 0 -8 -9 -17 -8 -10 -39 -50 -69 -90 -29 -39 -56 -69 -59 -66 -3 4 -6 1 -6
-5 0 -6 -22 -32 -49 -59 -103 -102 -191 -184 -191 -179 0 2 -17 -11 -37 -31
-21 -19 -57 -46 -80 -60 -24 -14 -43 -29 -43 -34 0 -5 -3 -8 -7 -7 -14 3 -63
-25 -63 -35 0 -6 -3 -8 -6 -5 -3 4 -22 -1 -42 -9 -20 -9 -50 -17 -67 -20 -16
-2 -41 -6 -55 -9 -67 -13 -136 -21 -147 -17 -7 3 -13 0 -13 -5 0 -6 -8 -11
-17 -11 -30 0 -66 -8 -98 -22 -16 -7 -34 -11 -38 -10 -4 0 -16 -3 -26 -9 -10
-5 -33 -11 -50 -12 -17 -1 -31 -5 -31 -8 0 -3 -10 -6 -22 -6 -37 -3 -92 -15
-103 -24 -5 -4 -23 -10 -40 -14 -154 -36 -488 -206 -593 -303 -14 -13 -28 -20
-33 -17 -5 3 -9 -2 -9 -10 0 -9 -4 -16 -9 -16 -4 0 -26 -14 -47 -30 -22 -17
-48 -37 -59 -45 -10 -8 -23 -15 -28 -15 -4 0 -5 -4 -2 -10 3 -5 0 -10 -7 -10
-8 0 -29 -16 -48 -35 -19 -19 -38 -35 -42 -35 -8 0 -84 -68 -152 -136 -78 -79
-177 -184 -172 -184 3 0 -5 -10 -17 -23 -40 -42 -67 -77 -59 -77 4 0 2 -4 -3
-8 -22 -15 -90 -132 -78 -132 5 0 -1 -7 -11 -15 -14 -11 -16 -15 -5 -15 12 0
12 -2 -1 -10 -8 -5 -11 -10 -6 -10 5 0 4 -6 -1 -12 -6 -7 -9 -21 -8 -31 2 -9
0 -17 -5 -17 -4 0 -6 -9 -3 -20 3 -11 0 -27 -7 -35 -10 -12 -10 -15 0 -15 8 0
9 -4 3 -12 -10 -14 -10 -55 0 -65 4 -3 2 -14 -3 -24 -7 -12 -6 -20 2 -25 7 -5
8 -3 3 6 -5 8 -4 11 3 7 5 -4 8 -16 5 -27 -3 -11 0 -20 6 -20 6 0 11 -9 11
-20 0 -11 5 -20 11 -20 6 0 9 -7 5 -15 -3 -10 1 -15 12 -15 15 0 15 -2 2 -10
-13 -8 -12 -10 3 -10 10 0 15 -4 12 -10 -3 -5 1 -10 10 -10 9 0 14 -3 12 -8
-5 -7 23 -38 33 -36 12 3 39 -23 32 -31 -4 -5 -1 -5 6 -1 8 5 20 -1 32 -14 10
-12 21 -21 24 -21 20 3 26 0 21 -9 -3 -6 1 -7 9 -4 9 3 16 1 16 -6 0 -6 5 -8
10 -5 5 3 10 0 10 -7 0 -9 3 -9 10 2 5 8 10 10 10 5 0 -6 8 -11 18 -12 9 -1
37 -4 62 -8 25 -4 72 -8 105 -9 34 -1 66 -5 72 -9 6 -4 15 -2 18 4 4 5 13 8
20 5 7 -2 16 -2 19 2 4 3 21 7 39 7 42 3 127 15 152 22 11 4 34 7 50 8 17 1
39 4 50 8 11 3 36 9 55 11 57 8 93 15 120 22 14 3 35 6 48 7 12 1 22 5 22 9 0
4 3 7 8 6 4 -1 26 2 50 6 23 4 52 9 65 10 87 11 134 20 144 28 7 6 14 5 18 -3
6 -8 10 -7 16 2 6 10 9 10 9 2 0 -7 6 -10 13 -7 8 3 56 6 108 8 52 1 100 6
107 10 7 4 12 2 12 -4 0 -8 6 -7 21 1 17 9 20 8 14 -2 -5 -8 -4 -10 3 -5 20
12 51 15 57 5 4 -5 12 -6 18 -2 12 8 55 14 95 13 13 0 33 5 44 11 15 8 19 8
14 0 -8 -12 6 -15 18 -4 8 9 49 16 98 17 20 1 34 4 31 9 -2 4 4 7 14 8 10 0
27 2 38 4 11 3 35 5 53 7 17 1 32 6 32 11 0 4 5 5 10 2 6 -4 36 1 68 10 59 18
103 23 232 27 41 2 78 8 82 13 5 6 8 5 8 -2 0 -9 7 -10 23 -5 12 4 40 7 62 7
22 0 43 4 47 10 5 7 8 7 8 0 0 -7 32 -10 88 -8 48 2 126 4 174 5 49 2 88 6 88
9 0 4 14 9 31 13 34 7 98 35 115 51 6 5 22 17 34 25 29 20 37 27 90 90 25 29
53 61 63 72 9 10 15 18 12 18 -5 0 98 143 120 166 5 6 16 20 23 30 7 11 36 53
65 94 65 93 117 177 117 190 0 6 5 10 10 10 6 0 10 7 10 15 0 8 3 15 8 15 4 0
13 15 21 33 8 17 17 34 21 37 9 7 110 158 110 165 0 6 13 23 43 56 9 10 17 22
18 27 0 4 10 18 22 32 12 14 33 42 46 63 12 21 30 44 38 52 8 8 11 15 8 15 -7
0 46 72 74 101 9 9 41 45 71 79 30 35 70 79 88 97 17 19 32 37 32 40 0 2 12
17 28 33 45 48 85 93 122 140 19 24 47 57 63 72 15 16 27 33 27 39 0 6 4 8 8
5 4 -2 50 36 100 85 51 49 97 89 103 89 5 0 9 7 9 16 0 8 4 13 8 10 4 -2 27
13 52 35 24 21 47 39 52 39 5 0 7 4 4 9 -3 5 6 12 19 15 14 4 23 11 20 16 -3
5 3 11 13 14 10 4 36 22 57 41 21 18 43 33 49 32 6 -1 10 4 9 11 -2 6 3 12 11
12 7 0 26 11 42 25 47 42 54 46 54 38 0 -4 5 0 11 9 5 10 17 18 24 18 8 0 15
5 15 12 0 6 3 8 7 5 3 -4 13 2 20 13 8 11 19 18 24 15 5 -4 12 1 15 9 3 9 12
16 20 16 7 0 17 6 21 13 7 11 66 44 90 50 5 1 16 8 26 17 10 8 21 16 25 16 26
5 52 18 52 26 0 5 5 6 10 3 6 -3 13 0 16 9 3 8 12 12 20 9 8 -3 14 0 14 7 0 6
4 9 9 5 6 -3 14 3 20 12 8 13 10 14 11 4 0 -12 2 -12 13 1 6 9 21 18 32 20 11
2 23 7 26 11 3 5 12 10 20 12 36 8 59 18 59 25 0 5 8 7 18 6 9 -2 19 0 22 3 3
3 22 15 42 25 21 10 35 23 32 27 -3 5 0 9 6 9 6 0 9 4 5 9 -3 5 2 17 11 25 9
9 11 16 4 16 -7 0 -6 6 3 15 20 20 7 155 -15 155 -5 0 -6 4 -3 10 3 5 2 10 -2
10 -7 0 -76 122 -79 140 0 3 -5 16 -11 30 -6 14 -16 43 -24 65 -8 22 -16 42
-19 45 -5 5 -8 15 -15 50 -2 8 -4 15 -5 15 -1 0 -3 7 -5 15 -1 8 -8 34 -14 56
-13 47 -23 121 -25 174 -1 19 -5 38 -11 42 -7 5 -6 8 0 8 7 0 9 22 5 60 -3 33
-3 60 1 60 3 0 19 -19 35 -42 15 -24 35 -50 44 -60 8 -9 25 -29 37 -45 12 -15
30 -38 40 -50 10 -12 28 -35 40 -50 12 -15 31 -39 43 -53 12 -14 34 -40 48
-59 15 -18 35 -43 45 -55 11 -11 35 -41 55 -65 21 -24 54 -62 75 -83 20 -22
37 -44 37 -49 0 -6 5 -7 10 -4 5 3 10 2 10 -4 0 -9 20 -29 96 -98 54 -47 74
-63 74 -56 0 3 9 -4 20 -17 11 -13 20 -20 20 -17 0 3 12 -5 28 -19 44 -40 62
-54 67 -54 6 0 86 -51 95 -60 10 -10 45 -31 63 -36 9 -4 17 -10 17 -15 0 -5 7
-9 15 -9 8 0 15 -3 15 -8 0 -4 17 -15 38 -24 20 -10 48 -24 62 -32 25 -14 78
-38 93 -42 4 -1 9 -3 12 -4 3 -1 8 -3 13 -5 4 -1 15 -5 24 -9 9 -4 25 -9 35
-11 10 -2 20 -4 23 -5 3 -1 8 -2 13 -1 4 0 7 -3 7 -9 0 -5 6 -7 13 -5 18 7 35
-8 40 -35 2 -14 7 -33 12 -43 4 -10 5 -21 1 -24 -3 -3 -2 -11 3 -17 6 -6 11
-23 13 -36 2 -14 7 -31 11 -37 5 -7 5 -13 2 -13 -3 0 1 -10 9 -22 19 -27 21
-42 4 -32 -7 4 -5 -1 4 -12 9 -10 17 -23 17 -29 2 -22 13 -45 22 -45 5 0 9 -3
8 -8 -1 -4 2 -18 7 -32 4 -14 8 -27 8 -30 0 -3 6 -11 13 -18 7 -8 11 -18 8
-23 -4 -5 -1 -9 4 -9 6 0 10 -3 9 -7 0 -5 6 -25 15 -45 10 -21 17 -42 17 -48
0 -5 5 -10 10 -10 6 0 10 -7 10 -15 0 -14 30 -85 40 -95 3 -3 6 -14 8 -25 2
-11 9 -25 15 -30 12 -10 19 -29 20 -52 0 -7 4 -13 9 -13 4 0 8 -5 8 -11 0 -5
9 -31 21 -56 11 -25 22 -53 24 -63 2 -10 8 -26 13 -36 15 -29 72 -177 77 -199
2 -11 9 -36 15 -55 6 -19 14 -46 17 -60 10 -50 12 -55 13 -55 1 0 4 -16 6 -35
3 -19 7 -42 11 -50 10 -25 12 -68 13 -220 1 -160 -2 -211 -21 -297 -15 -70
-13 -62 -27 -96 -7 -16 -12 -34 -12 -41 0 -6 -4 -16 -9 -22 -13 -14 -62 -154
-53 -154 4 0 0 -5 -8 -10 -8 -5 -15 -15 -15 -22 -1 -7 -9 -40 -20 -73 -43
-135 -11 -410 60 -516 14 -21 25 -41 25 -44 0 -10 122 -124 161 -150 9 -5 43
-29 77 -52 84 -56 266 -121 387 -138 77 -11 510 -4 605 9 25 4 59 8 75 10 106
14 134 18 165 26 19 5 50 12 68 15 119 20 369 144 423 210 9 11 29 33 43 50
14 16 36 50 48 75 13 25 26 47 29 50 3 3 19 43 34 90 23 68 28 102 28 175 -1
90 -7 164 -19 220 -3 17 -7 39 -9 50 -3 28 -29 114 -90 298 -28 87 -49 154
-45 150 4 -4 27 -35 51 -68 77 -106 301 -334 409 -415 18 -14 66 -51 106 -82
41 -32 78 -58 83 -58 5 0 11 -4 13 -9 9 -24 441 -271 474 -271 6 0 21 -6 99
-40 17 -7 35 -15 40 -16 30 -8 137 -49 192 -74 35 -16 63 -27 63 -25 0 2 38
-14 85 -36 47 -21 92 -39 100 -39 8 0 15 -4 15 -9 0 -5 13 -11 29 -14 15 -3
55 -18 87 -32 32 -15 77 -35 99 -45 60 -26 120 -49 220 -82 50 -16 104 -36
120 -43 31 -14 336 -104 415 -123 109 -26 165 -37 235 -46 28 -4 79 -11 114
-17 60 -9 530 -6 576 4 11 3 56 8 99 12 43 4 88 9 100 11 12 2 35 7 51 10 17
3 50 10 75 15 25 6 56 13 70 16 35 7 43 9 60 16 8 4 26 8 40 11 106 19 627
199 735 253 114 58 305 173 305 184 0 5 5 9 11 9 10 0 109 73 156 115 74 68
243 240 243 249 0 3 10 16 23 29 30 32 52 60 74 94 9 15 25 35 35 44 10 9 18
19 18 23 0 5 132 208 157 241 26 35 167 286 169 302 1 8 9 24 17 36 7 12 29
60 47 107 32 83 40 108 113 335 32 99 69 264 81 355 3 19 9 58 15 85 5 28 12
68 15 90 4 23 9 52 11 65 6 28 21 124 30 185 3 23 7 51 9 62 5 22 12 90 22
193 2 30 7 69 9 85 24 173 24 625 0 858 -9 86 -15 133 -20 157 -3 14 -8 36
-10 50 -10 57 -16 84 -26 102 -5 10 -8 18 -5 18 9 0 -43 137 -88 231 -62 130
-118 171 -220 162 -40 -4 -116 -40 -116 -55 0 -5 -4 -6 -10 -3 -5 3 -10 0 -10
-8 0 -8 -7 -20 -15 -27 -9 -7 -13 -15 -10 -18 3 -3 0 -11 -5 -17 -14 -17 -20
-102 -10 -129 6 -17 -6 -42 -62 -126 -39 -58 -82 -113 -96 -124 -26 -18 -61
-60 -111 -134 -30 -45 -40 -55 -127 -128 -97 -80 -112 -92 -160 -120 -34 -20
-206 -98 -232 -105 -19 -5 -39 -11 -59 -19 -20 -8 -88 -22 -177 -36 -21 -3
-48 -8 -60 -10 -23 -4 -67 -12 -107 -18 -14 -2 -57 -7 -95 -11 -38 -4 -79 -8
-91 -10 -104 -16 -598 -24 -708 -12 -118 14 -323 56 -370 77 -11 5 -56 20
-100 33 -82 25 -114 38 -270 112 -78 37 -114 53 -135 60 -118 40 -300 148
-575 340 -38 27 -92 64 -120 83 -27 20 -52 38 -55 42 -3 4 -36 33 -75 65 -100
82 -326 314 -420 430 -16 21 -38 47 -49 59 -10 11 -37 46 -60 76 -22 30 -43
57 -46 60 -9 8 -94 141 -116 180 -10 19 -21 37 -24 40 -5 5 -31 51 -51 90 -23
43 -109 227 -109 232 0 6 -38 89 -110 243 -18 39 -35 79 -37 90 -2 10 -7 22
-11 25 -11 8 -72 134 -72 148 0 7 -4 12 -10 12 -5 0 -10 5 -10 12 0 12 -60
138 -70 148 -3 3 -17 30 -33 60 -15 30 -41 78 -57 105 -16 28 -53 95 -81 150
-49 95 -84 160 -136 250 -12 22 -37 67 -54 100 -17 33 -39 71 -49 85 -9 14
-36 61 -60 105 -44 82 -97 171 -115 192 -5 7 -32 44 -60 82 -43 61 -299 324
-375 386 -62 50 -247 154 -312 175 -33 10 -38 16 -38 41 0 29 -16 68 -35 81
-5 4 -6 8 -2 8 5 0 -14 24 -41 53 -53 55 -76 81 -120 135 -15 18 -39 48 -54
66 -16 19 -28 36 -28 40 0 3 -8 14 -17 24 -31 32 -76 92 -145 194 -76 112
-159 221 -170 226 -17 7 -7 29 20 43 15 7 50 31 79 51 29 21 55 38 58 38 3 0
20 -16 38 -36 55 -61 132 -111 207 -133 25 -7 55 -17 68 -22 15 -6 22 -5 22 2
0 7 5 8 13 2 48 -36 227 36 306 123 41 45 121 185 121 212 0 6 35 8 83 6 75
-3 87 0 141 27 66 33 54 36 130 -36 60 -57 101 -82 177 -110 32 -12 124 -28
154 -28 34 1 110 15 125 23 32 17 40 12 75 -62 63 -128 102 -184 196 -277 74
-75 94 -91 109 -91 5 0 10 -3 10 -8 0 -9 67 -39 107 -48 48 -10 176 -13 215
-5 l37 9 70 -92 c80 -105 201 -231 201 -210 0 3 7 -1 15 -10 25 -24 125 -57
179 -58 59 -2 215 10 226 17 4 2 31 -34 60 -82 144 -235 307 -336 490 -303 44
8 56 11 111 25 24 6 28 2 53 -52 27 -58 35 -73 91 -168 64 -108 169 -212 258
-255 107 -51 169 -61 295 -48 20 3 26 -4 39 -42 8 -25 21 -59 29 -77 8 -17 14
-33 14 -36 0 -13 210 -450 220 -457 4 -3 15 -21 25 -40 24 -46 107 -184 115
-190 3 -3 17 -21 30 -40 14 -19 32 -44 40 -54 26 -33 164 -178 195 -205 16
-14 40 -36 52 -48 13 -13 28 -23 33 -23 4 0 10 -3 12 -7 7 -16 129 -90 163
-100 59 -15 93 -24 110 -28 66 -16 206 -12 310 9 41 9 215 94 215 106 0 6 5
10 10 10 11 0 60 48 60 59 0 3 7 14 14 24 13 17 21 15 128 -50 62 -37 115 -71
118 -74 4 -5 337 -171 350 -174 3 -1 30 -9 61 -19 31 -9 67 -19 80 -22 36 -8
91 -21 119 -28 49 -12 323 -5 410 10 74 13 84 15 116 29 19 8 34 11 34 7 0 -4
4 -2 8 3 4 6 29 23 55 39 27 15 51 34 54 42 3 8 11 14 18 14 8 0 17 9 20 20 3
11 10 20 15 20 5 0 19 17 31 38 13 20 26 39 29 42 3 3 17 32 30 65 32 77 34
202 7 285 -50 149 -171 279 -322 345 -203 90 -315 160 -350 218 -24 40 -62 77
-135 133 -84 63 -151 131 -255 258 -22 27 -47 57 -55 67 -8 10 -24 30 -35 44
-11 14 -25 31 -31 38 -17 20 -148 218 -179 272 -62 106 -127 259 -139 325 -2
14 -5 26 -7 28 -1 1 -2 5 -3 10 -1 4 -7 30 -14 57 -6 28 -14 61 -16 75 -13 82
-86 347 -116 425 -6 17 -11 32 -11 35 0 10 -11 56 -19 75 -14 36 -70 220 -70
232 0 12 -93 299 -109 338 -4 11 -16 37 -25 58 -9 21 -16 39 -16 42 0 2 28 -9
63 -25 78 -35 124 -43 252 -44 232 0 418 46 535 133 38 28 132 124 166 168 68
90 88 197 57 318 -12 46 -51 144 -63 155 -3 3 -17 21 -32 41 -42 56 -91 104
-170 165 -83 64 -117 99 -200 204 -32 41 -67 86 -78 100 -11 14 -20 31 -20 38
0 6 -4 12 -9 12 -5 0 -14 14 -21 30 -7 16 -16 30 -21 30 -5 0 -9 5 -9 11 0 6
-13 30 -30 54 -16 24 -30 48 -30 54 0 6 -4 11 -10 11 -5 0 -10 5 -10 10 0 10
-96 158 -109 170 -3 3 -12 17 -20 33 -8 15 -18 27 -23 27 -4 0 -8 5 -8 10 0
20 -198 308 -292 425 -5 6 -27 35 -50 65 -24 30 -59 73 -78 95 -68 78 -436
442 -505 500 -38 33 -88 76 -110 96 -78 72 -111 102 -170 152 -32 29 -67 60
-77 70 -10 9 -21 17 -26 17 -9 0 -41 28 -180 158 -116 108 -151 140 -161 144
-3 2 -31 32 -61 68 -30 36 -57 67 -60 70 -25 24 -253 322 -273 356 -3 5 4 11
16 11 70 4 150 20 216 43 31 11 61 21 66 23 6 1 12 4 15 7 3 3 30 18 60 34
115 61 207 127 299 214 31 29 71 58 88 64 18 7 33 16 33 22 0 5 3 7 6 3 9 -9
62 56 69 86 4 15 11 29 15 32 18 11 -8 139 -32 155 -4 3 -8 20 -10 38 -1 18
-6 32 -10 32 -4 0 -8 6 -8 13 0 17 -62 87 -77 87 -7 0 -13 4 -13 9 0 5 -21 14
-47 20 -27 7 -73 25 -103 42 -30 16 -102 52 -160 81 -101 49 -551 333 -680
428 -71 53 -165 125 -176 135 -6 5 -22 17 -34 25 -32 22 -114 83 -120 90 -3 3
-42 32 -87 64 -46 33 -83 63 -83 68 0 4 -7 8 -15 8 -7 0 -19 8 -24 18 -6 9
-11 13 -11 8 0 -5 -9 1 -20 14 -11 13 -20 20 -20 16 0 -4 -6 -1 -13 6 -8 7
-33 29 -57 48 -23 19 -61 52 -84 73 -22 20 -44 37 -48 37 -5 0 -8 6 -8 14 0 8
-9 18 -20 21 -11 3 -20 13 -20 21 0 8 -5 14 -11 14 -11 0 -209 196 -209 208 0
4 11 19 25 34 14 15 25 30 25 34 0 4 11 22 25 40 14 18 25 37 25 42 0 5 7 15
15 22 8 7 15 21 15 30 0 10 3 20 8 22 4 2 15 18 24 36 11 20 13 30 5 26 -9 -6
-9 -5 0 7 23 28 53 135 56 197 1 17 4 32 8 32 8 0 4 78 -6 110 -12 43 -39 100
-46 100 -6 0 -13 25 -26 85 -2 10 -8 22 -15 26 -6 4 -7 12 -3 19 5 9 4 11 -3
6 -7 -4 -12 -2 -12 4 0 17 -60 71 -71 64 -5 -3 -9 2 -9 10 0 9 -6 13 -14 10
-8 -3 -23 -1 -34 5 -13 7 -22 7 -30 -1 -8 -8 -15 -8 -27 2 -8 7 -15 8 -15 3 0
-5 -19 -15 -42 -22 -24 -7 -52 -16 -63 -21 -51 -24 -129 -49 -137 -44 -4 3 -8
0 -8 -6 0 -6 -4 -8 -10 -5 -5 3 -10 2 -10 -3 0 -5 -14 -8 -30 -7 -17 1 -33 -1
-35 -5 -5 -8 -248 -5 -285 4 -14 3 -38 8 -55 10 -41 6 -59 10 -65 16 -4 4 -40
16 -105 33 -5 2 -20 8 -31 15 -12 6 -24 8 -28 5 -3 -3 -6 -1 -6 6 0 7 -4 10
-9 7 -5 -3 -14 1 -21 9 -7 8 -18 15 -25 15 -7 0 -18 7 -25 15 -7 8 -16 12 -21
9 -5 -3 -9 -1 -9 4 0 6 -20 22 -45 36 -25 15 -45 31 -45 36 0 6 -7 10 -15 10
-8 0 -15 7 -15 15 0 8 -4 15 -8 15 -4 0 -32 23 -61 50 -29 28 -57 50 -62 50
-5 0 -9 4 -9 9 0 5 -15 25 -32 44 -53 55 -108 131 -108 147 0 17 -86 100 -104
100 -9 0 -16 3 -16 8 0 4 -14 8 -31 8 -21 1 -39 11 -55 29 -13 16 -27 25 -30
22 -4 -3 -13 1 -22 9 -8 9 -23 13 -33 11 -11 -3 -22 -1 -25 4 -3 5 -10 7 -15
4 -5 -4 -9 0 -9 9 0 8 -6 17 -12 19 -10 4 -10 6 0 6 19 1 -25 80 -67 119 -20
19 -35 38 -33 43 1 5 -6 9 -15 9 -15 0 -16 2 -3 10 8 5 10 10 4 10 -6 0 -23
12 -38 26 -14 15 -26 24 -26 20 0 -11 -81 48 -125 91 -7 7 -15 10 -17 8 -2 -3
-20 10 -39 28 -19 17 -47 42 -63 55 -16 12 -26 22 -23 22 4 0 -6 13 -21 29
-15 16 -47 53 -72 82 -25 29 -60 68 -77 86 -18 19 -33 38 -33 42 0 5 -3 11 -8
13 -4 2 -32 32 -62 68 -30 36 -57 67 -60 70 -3 3 -17 21 -30 40 -30 44 -39 55
-67 84 -12 13 -19 27 -16 30 3 3 -2 8 -11 12 -9 3 -16 12 -16 19 0 7 -4 15 -8
17 -5 2 -27 28 -49 59 -23 31 -49 63 -58 72 -9 10 -13 17 -8 17 4 0 3 4 -3 8
-5 4 -41 45 -79 92 -38 47 -78 93 -89 103 -10 9 -16 17 -11 17 4 0 -7 14 -25
30 -18 17 -30 30 -26 30 3 0 -12 18 -34 40 -22 22 -37 40 -33 40 3 0 -6 9 -21
21 -14 11 -26 27 -26 35 0 8 -4 12 -10 9 -5 -3 -10 -3 -10 2 0 12 -79 93 -129
132 -23 19 -71 73 -106 120 -35 47 -110 129 -167 182 -75 70 -113 114 -136
158 -32 59 -122 149 -257 256 -27 21 -84 69 -125 105 -128 112 -243 194 -450
320 -58 35 -108 68 -112 74 -4 6 -8 8 -8 4 0 -4 -29 10 -65 32 -36 22 -70 40
-75 40 -6 0 -10 4 -10 8 0 4 -19 18 -42 30 -24 12 -81 47 -128 78 -47 30 -93
57 -102 60 -10 4 -18 10 -18 15 0 5 -6 9 -13 9 -7 0 -28 11 -47 23 -33 23 -54
35 -175 103 -27 15 -52 30 -55 33 -7 8 -39 27 -77 47 -18 9 -33 20 -33 25 0 5
-4 9 -9 9 -5 0 -47 23 -93 52 -70 43 -133 85 -343 228 -164 112 -211 145 -213
152 -2 4 -9 8 -15 8 -7 0 -57 29 -112 65 -55 35 -140 87 -190 116 -49 29 -98
59 -107 67 -10 8 -18 11 -18 7 0 -4 -8 -1 -17 7 -10 9 -22 17 -28 19 -5 2 -57
28 -114 57 l-104 54 123 120 c68 66 140 132 159 146 20 15 38 30 41 33 17 20
228 137 432 238 237 118 296 140 463 171 90 17 106 19 189 25 44 3 104 8 131
11 68 6 244 6 275 -1 14 -3 43 -8 64 -11 95 -14 308 -74 381 -107 125 -56 288
-131 315 -147 14 -8 30 -15 35 -16 6 -1 33 -13 60 -25 28 -13 53 -24 58 -25 4
-1 10 -3 15 -4 4 -1 10 -2 15 -1 4 0 7 -4 7 -9 0 -6 7 -10 16 -10 9 0 30 -6
47 -14 18 -8 43 -17 57 -20 14 -4 50 -13 80 -22 87 -23 152 -29 350 -29 219 0
342 10 476 36 28 5 61 12 75 14 139 25 357 119 447 192 12 10 36 29 53 43 49
40 63 52 151 133 46 42 112 100 148 129 36 29 67 55 70 58 3 3 23 18 45 34 35
25 73 62 105 102 5 7 7 20 5 30 -2 11 -4 27 -4 36 -1 9 -8 23 -16 31 -8 8 -12
17 -10 19 3 2 -11 11 -30 20 -45 20 -81 7 -166 -60 -36 -28 -77 -53 -91 -56
-14 -2 -39 -12 -54 -20 -16 -9 -48 -28 -72 -41 -53 -30 -147 -66 -187 -72 -16
-2 -43 -8 -60 -13 -62 -20 -185 -32 -316 -31 -124 0 -159 2 -254 17 -70 11
-453 85 -489 95 -22 6 -48 12 -58 14 -11 2 -27 6 -36 9 -9 3 -33 8 -52 11 -19
3 -87 28 -150 55 -331 140 -428 176 -593 220 -99 26 -191 47 -237 54 -8 2 -33
6 -55 10 -76 13 -111 16 -260 23 -284 13 -464 10 -562 -11 -54 -11 -15 43 161
223 206 210 268 272 306 300 19 14 44 34 54 44 11 9 24 17 29 17 4 0 23 11 41
25 18 14 38 25 44 25 6 0 12 4 14 9 2 5 48 31 103 59 186 93 338 133 565 147
151 10 311 24 319 29 3 2 44 7 91 11 47 4 105 8 130 10 25 2 119 7 210 10 167
6 216 9 325 20 33 3 76 7 95 9 31 3 87 11 145 22 125 23 409 111 587 182 192
78 432 215 537 308 24 21 76 77 116 124 39 47 94 108 122 135 27 28 66 82 87
120 31 58 128 194 171 241 5 6 37 46 70 88 63 82 74 117 49 167 -14 28 -69 60
-94 55 -41 -8 -71 -29 -106 -74 -29 -37 -57 -58 -114 -85 -154 -75 -261 -136
-432 -250 -97 -64 -181 -117 -186 -117 -6 0 -12 -3 -14 -8 -10 -23 -263 -155
-398 -207 -74 -29 -211 -69 -275 -81 -26 -4 -153 -25 -185 -29 -26 -4 -425
-14 -800 -19 -124 -2 -254 -9 -290 -15 -36 -6 -83 -13 -105 -16 -22 -3 -53 -8
-70 -10 -16 -3 -59 -7 -95 -10 -65 -6 -101 -10 -182 -21 -24 -3 -80 -18 -125
-33 -75 -25 -83 -26 -83 -10 0 10 30 75 66 145 103 200 230 368 339 449 22 16
42 33 45 36 5 6 277 139 285 139 2 0 16 5 32 12 15 6 33 12 38 13 6 2 84 32
175 68 157 62 330 121 381 131 37 6 258 65 314 83 69 22 158 67 238 120 70 48
232 201 263 250 10 15 24 32 31 36 7 4 13 12 13 17 0 5 18 36 41 70 126 190
233 508 232 688 -1 72 -66 138 -122 123 -14 -4 -37 -5 -51 -1 -49 13 -104 -27
-132 -95 -16 -40 -175 -255 -189 -255 -5 0 -8 3 -6 8 3 4 8 52 11 107 10 145
23 274 32 320 3 11 7 36 10 55 3 19 8 38 11 43 2 4 7 20 9 35 3 15 14 56 24
91 10 36 17 68 14 73 -3 4 -1 8 4 8 6 0 6 13 -1 35 -8 27 -7 42 6 72 39 90
-19 170 -112 155z m-1517 -10482 c12 0 27 -5 34 -12 7 -7 12 -9 12 -5 0 4 10
2 23 -5 12 -6 28 -13 36 -14 7 -2 35 -12 61 -23 27 -12 58 -22 69 -24 11 -2
24 -6 27 -10 4 -4 18 -7 31 -7 13 0 23 -4 23 -8 0 -8 7 -10 48 -13 9 -1 23 -6
30 -12 6 -5 12 -7 12 -4 0 3 17 1 38 -4 20 -5 55 -12 77 -15 22 -4 42 -9 45
-13 3 -4 14 -7 25 -7 11 0 53 -8 92 -17 40 -10 76 -17 80 -16 5 1 10 0 13 -1
16 -6 54 -10 127 -14 45 -2 86 -7 92 -11 6 -3 11 0 11 7 0 8 3 9 8 3 5 -9 187
-13 187 -5 0 1 60 7 133 12 6 1 12 6 12 12 0 7 3 7 8 1 8 -11 52 -15 52 -5 0
3 12 7 28 7 15 1 43 4 62 7 63 9 145 19 160 19 8 0 18 5 22 11 5 7 8 7 8 -2 0
-7 4 -10 10 -7 5 3 23 8 39 10 17 2 39 6 49 9 13 4 19 1 19 -9 0 -8 -3 -13 -5
-10 -3 3 -20 -11 -39 -30 -18 -19 -33 -32 -33 -30 0 7 -90 -77 -206 -192 -63
-62 -114 -110 -114 -108 0 3 -16 -12 -35 -32 -19 -20 -35 -33 -35 -29 0 5 -9
-3 -21 -18 -11 -14 -25 -26 -30 -26 -6 0 -21 -12 -34 -26 -14 -15 -25 -23 -25
-18 0 5 -5 1 -11 -8 -5 -10 -17 -18 -24 -18 -8 0 -15 -4 -15 -10 0 -5 -5 -10
-11 -10 -6 0 -16 -6 -23 -12 -8 -7 -24 -20 -36 -28 -13 -8 -33 -25 -46 -37
-12 -13 -29 -24 -36 -25 -7 -2 -20 -10 -28 -18 -23 -23 -78 -60 -90 -60 -5 0
-10 -3 -10 -7 0 -8 -58 -44 -64 -40 -2 1 -12 -5 -22 -14 -11 -9 -39 -27 -64
-40 -25 -13 -47 -26 -50 -29 -11 -12 -62 -30 -70 -25 -5 3 -11 1 -15 -5 -3 -5
-20 -7 -38 -4 -18 2 -38 5 -44 6 -7 1 -13 4 -13 8 0 3 -18 26 -40 50 -22 25
-40 51 -40 58 0 7 -4 10 -10 7 -5 -3 -10 1 -10 9 0 9 -4 16 -10 16 -5 0 -10 6
-10 13 0 7 -8 20 -17 28 -10 9 -25 26 -33 39 -8 12 -21 29 -28 36 -7 8 -11 14
-7 14 3 0 -3 10 -15 22 -11 12 -20 28 -20 35 0 7 -4 13 -8 13 -9 0 -72 133
-72 151 0 5 -5 9 -11 9 -5 0 -8 4 -5 8 3 5 -2 21 -10 36 -7 16 -14 35 -14 42
0 8 -5 14 -11 14 -5 0 -8 4 -4 9 3 5 1 12 -4 16 -6 3 -8 12 -5 19 3 8 1 17 -5
21 -6 3 -11 15 -11 26 0 10 -4 27 -9 37 -26 52 -33 71 -27 81 4 6 0 14 -8 17
-9 3 -16 11 -16 18 0 6 -20 58 -45 114 -25 56 -45 108 -44 115 0 9 2 9 6 0 2
-7 15 -13 27 -13z m-4484 -7981 c0 -11 -4 -18 -10 -14 -5 3 -7 12 -3 20 7 21
13 19 13 -6z m4190 -4965 c0 -8 -19 -13 -24 -6 -3 5 1 9 9 9 8 0 15 -2 15 -3z
m20 -29 c11 -13 10 -14 -4 -9 -9 3 -16 10 -16 15 0 13 6 11 20 -6z m34 -31 c3
-8 2 -12 -4 -9 -6 3 -10 10 -10 16 0 14 7 11 14 -7z m36 -25 c0 -6 -4 -7 -10
-4 -5 3 -10 11 -10 16 0 6 5 7 10 4 6 -3 10 -11 10 -16z m79 -63 c1 -6 -12 2
-27 17 -16 15 -32 24 -37 20 -4 -5 -5 -2 -1 5 6 9 14 7 36 -10 16 -13 29 -27
29 -32z"/>
</g>
</svg>
